<svg xmlns="http://www.w3.org/2000/svg" width="900" height="500" viewBox="0 0 900 500">
<defs>
  <symbol id="base-square" overflow="visible">
    <rect x="-9.0" y="-9.0" width="18" height="18" rx="3" ry="3" fill="#111"/>
  </symbol>
</defs>
<rect x="0" y="0" width="900" height="500" fill="#f8fafc"/><g><use href="#base-square" transform="translate(60.000,350.000) rotate(64.040) scale(0.800)" stroke="#222" stroke-width="0.5" opacity="0.9"/>
<use href="#base-square" transform="translate(68.500,367.458) rotate(63.486) scale(0.804)" stroke="#222" stroke-width="0.5" opacity="0.9"/>
<use href="#base-square" transform="translate(77.000,384.075) rotate(61.714) scale(0.809)" stroke="#222" stroke-width="0.5" opacity="0.9"/>
<use href="#base-square" transform="translate(85.500,399.049) rotate(58.354) scale(0.813)" stroke="#222" stroke-width="0.5" opacity="0.9"/>
<use href="#base-square" transform="translate(94.000,411.659) rotate(52.615) scale(0.818)" stroke="#222" stroke-width="0.5" opacity="0.9"/>
<use href="#base-square" transform="translate(102.500,421.297) rotate(42.974) scale(0.822)" stroke="#222" stroke-width="0.5" opacity="0.9"/>
<use href="#base-square" transform="translate(111.000,427.497) rotate(27.009) scale(0.827)" stroke="#222" stroke-width="0.5" opacity="0.9"/>
<use href="#base-square" transform="translate(119.500,429.962) rotate(3.619) scale(0.831)" stroke="#222" stroke-width="0.5" opacity="0.9"/>
<use href="#base-square" transform="translate(128.000,428.572) rotate(-21.121) scale(0.836)" stroke="#222" stroke-width="0.5" opacity="0.9"/>
<use href="#base-square" transform="translate(136.500,423.395) rotate(-39.256) scale(0.840)" stroke="#222" stroke-width="0.5" opacity="0.9"/>
<use href="#base-square" transform="translate(145.000,414.680) rotate(-50.399) scale(0.844)" stroke="#222" stroke-width="0.5" opacity="0.9"/>
<use href="#base-square" transform="translate(153.500,402.846) rotate(-57.036) scale(0.849)" stroke="#222" stroke-width="0.5" opacity="0.9"/>
<use href="#base-square" transform="translate(162.000,388.466) rotate(-60.958) scale(0.853)" stroke="#222" stroke-width="0.5" opacity="0.9"/>
<use href="#base-square" transform="translate(170.500,372.231) rotate(-63.123) scale(0.858)" stroke="#222" stroke-width="0.5" opacity="0.9"/>
<use href="#base-square" transform="translate(179.000,354.924) rotate(-63.997) scale(0.862)" stroke="#222" stroke-width="0.5" opacity="0.9"/>
<use href="#base-square" transform="translate(187.500,337.380) rotate(-63.755) scale(0.867)" stroke="#222" stroke-width="0.5" opacity="0.9"/>
<use href="#base-square" transform="translate(196.000,320.445) rotate(-62.348) scale(0.871)" stroke="#222" stroke-width="0.5" opacity="0.9"/>
<use href="#base-square" transform="translate(204.500,304.934) rotate(-59.491) scale(0.876)" stroke="#222" stroke-width="0.5" opacity="0.9"/>
<use href="#base-square" transform="translate(213.000,291.595) rotate(-54.532) scale(0.880)" stroke="#222" stroke-width="0.5" opacity="0.9"/>
<use href="#base-square" transform="translate(221.500,281.072) rotate(-46.194) scale(0.884)" stroke="#222" stroke-width="0.5" opacity="0.9"/>
<use href="#base-square" transform="translate(230.000,273.872) rotate(-32.262) scale(0.889)" stroke="#222" stroke-width="0.5" opacity="0.9"/>
<use href="#base-square" transform="translate(238.500,270.341) rotate(-10.730) scale(0.893)" stroke="#222" stroke-width="0.5" opacity="0.9"/>
<use href="#base-square" transform="translate(247.000,270.650) rotate(14.649) scale(0.898)" stroke="#222" stroke-width="0.5" opacity="0.9"/>
<use href="#base-square" transform="translate(255.500,274.785) rotate(34.980) scale(0.902)" stroke="#222" stroke-width="0.5" opacity="0.9"/>
<use href="#base-square" transform="translate(264.000,282.545) rotate(47.836) scale(0.907)" stroke="#222" stroke-width="0.5" opacity="0.9"/>
<use href="#base-square" transform="translate(272.500,293.557) rotate(55.510) scale(0.911)" stroke="#222" stroke-width="0.5" opacity="0.9"/>
<use href="#base-square" transform="translate(281.000,307.289) rotate(60.067) scale(0.916)" stroke="#222" stroke-width="0.5" opacity="0.9"/>
<use href="#base-square" transform="translate(289.500,323.081) rotate(62.660) scale(0.920)" stroke="#222" stroke-width="0.5" opacity="0.9"/>
<use href="#base-square" transform="translate(298.000,340.170) rotate(63.868) scale(0.924)" stroke="#222" stroke-width="0.5" opacity="0.9"/>
<use href="#base-square" transform="translate(306.500,357.733) rotate(63.934) scale(0.929)" stroke="#222" stroke-width="0.5" opacity="0.9"/>
<use href="#base-square" transform="translate(315.000,374.923) rotate(62.871) scale(0.933)" stroke="#222" stroke-width="0.5" opacity="0.9"/>
<use href="#base-square" transform="translate(323.500,390.912) rotate(60.466) scale(0.938)" stroke="#222" stroke-width="0.5" opacity="0.9"/>
<use href="#base-square" transform="translate(332.000,404.929) rotate(56.191) scale(0.942)" stroke="#222" stroke-width="0.5" opacity="0.9"/>
<use href="#base-square" transform="translate(340.500,416.298) rotate(48.979) scale(0.947)" stroke="#222" stroke-width="0.5" opacity="0.9"/>
<use href="#base-square" transform="translate(349.000,424.470) rotate(36.883) scale(0.951)" stroke="#222" stroke-width="0.5" opacity="0.9"/>
<use href="#base-square" transform="translate(357.500,429.053) rotate(17.485) scale(0.956)" stroke="#222" stroke-width="0.5" opacity="0.9"/>
<use href="#base-square" transform="translate(366.000,429.826) rotate(-7.716) scale(0.960)" stroke="#222" stroke-width="0.5" opacity="0.9"/>
<use href="#base-square" transform="translate(374.500,426.750) rotate(-30.092) scale(0.964)" stroke="#222" stroke-width="0.5" opacity="0.9"/>
<use href="#base-square" transform="translate(383.000,419.975) rotate(-44.872) scale(0.969)" stroke="#222" stroke-width="0.5" opacity="0.9"/>
<use href="#base-square" transform="translate(391.500,409.826) rotate(-53.745) scale(0.973)" stroke="#222" stroke-width="0.5" opacity="0.9"/>
<use href="#base-square" transform="translate(400.000,396.793) rotate(-59.025) scale(0.978)" stroke="#222" stroke-width="0.5" opacity="0.9"/>
<use href="#base-square" transform="translate(408.500,381.505) rotate(-62.091) scale(0.982)" stroke="#222" stroke-width="0.5" opacity="0.9"/>
<use href="#base-square" transform="translate(417.000,364.698) rotate(-63.651) scale(0.987)" stroke="#222" stroke-width="0.5" opacity="0.9"/>
<use href="#base-square" transform="translate(425.500,347.183) rotate(-64.026) scale(0.991)" stroke="#222" stroke-width="0.5" opacity="0.9"/>
<use href="#base-square" transform="translate(434.000,329.803) rotate(-63.290) scale(0.996)" stroke="#222" stroke-width="0.5" opacity="0.9"/>
<use href="#base-square" transform="translate(442.500,313.397) rotate(-61.297) scale(1.000)" stroke="#222" stroke-width="0.5" opacity="0.9"/>
<use href="#base-square" transform="translate(451.000,298.756) rotate(-57.624) scale(1.004)" stroke="#222" stroke-width="0.5" opacity="0.9"/>
<use href="#base-square" transform="translate(459.500,286.584) rotate(-51.387) scale(1.009)" stroke="#222" stroke-width="0.5" opacity="0.9"/>
<use href="#base-square" transform="translate(468.000,277.470) rotate(-40.913) scale(1.013)" stroke="#222" stroke-width="0.5" opacity="0.9"/>
<use href="#base-square" transform="translate(476.500,271.852) rotate(-23.718) scale(1.018)" stroke="#222" stroke-width="0.5" opacity="0.9"/>
<use href="#base-square" transform="translate(485.000,270.001) rotate(0.521) scale(1.022)" stroke="#222" stroke-width="0.5" opacity="0.9"/>
<use href="#base-square" transform="translate(493.500,272.006) rotate(24.565) scale(1.027)" stroke="#222" stroke-width="0.5" opacity="0.9"/>
<use href="#base-square" transform="translate(502.000,277.771) rotate(41.447) scale(1.031)" stroke="#222" stroke-width="0.5" opacity="0.9"/>
<use href="#base-square" transform="translate(510.500,287.018) rotate(51.705) scale(1.036)" stroke="#222" stroke-width="0.5" opacity="0.9"/>
<use href="#base-square" transform="translate(519.000,299.301) rotate(57.814) scale(1.040)" stroke="#222" stroke-width="0.5" opacity="0.9"/>
<use href="#base-square" transform="translate(527.500,314.028) rotate(61.406) scale(1.044)" stroke="#222" stroke-width="0.5" opacity="0.9"/>
<use href="#base-square" transform="translate(536.000,330.489) rotate(63.342) scale(1.049)" stroke="#222" stroke-width="0.5" opacity="0.9"/>
<use href="#base-square" transform="translate(544.500,347.891) rotate(64.032) scale(1.053)" stroke="#222" stroke-width="0.5" opacity="0.9"/>
<use href="#base-square" transform="translate(553.000,365.394) rotate(63.612) scale(1.058)" stroke="#222" stroke-width="0.5" opacity="0.9"/>
<use href="#base-square" transform="translate(561.500,382.155) rotate(62.000) scale(1.062)" stroke="#222" stroke-width="0.5" opacity="0.9"/>
<use href="#base-square" transform="translate(570.000,397.366) rotate(58.862) scale(1.067)" stroke="#222" stroke-width="0.5" opacity="0.9"/>
<use href="#base-square" transform="translate(578.500,410.294) rotate(53.470) scale(1.071)" stroke="#222" stroke-width="0.5" opacity="0.9"/>
<use href="#base-square" transform="translate(587.000,420.315) rotate(44.409) scale(1.076)" stroke="#222" stroke-width="0.5" opacity="0.9"/>
<use href="#base-square" transform="translate(595.500,426.947) rotate(29.337) scale(1.080)" stroke="#222" stroke-width="0.5" opacity="0.9"/>
<use href="#base-square" transform="translate(604.000,429.869) rotate(6.693) scale(1.084)" stroke="#222" stroke-width="0.5" opacity="0.9"/>
<use href="#base-square" transform="translate(612.500,428.942) rotate(-18.416) scale(1.089)" stroke="#222" stroke-width="0.5" opacity="0.9"/>
<use href="#base-square" transform="translate(621.000,424.209) rotate(-37.497) scale(1.093)" stroke="#222" stroke-width="0.5" opacity="0.9"/>
<use href="#base-square" transform="translate(629.500,415.899) rotate(-49.347) scale(1.098)" stroke="#222" stroke-width="0.5" opacity="0.9"/>
<use href="#base-square" transform="translate(638.000,404.412) rotate(-56.410) scale(1.102)" stroke="#222" stroke-width="0.5" opacity="0.9"/>
<use href="#base-square" transform="translate(646.500,390.302) rotate(-60.594) scale(1.107)" stroke="#222" stroke-width="0.5" opacity="0.9"/>
<use href="#base-square" transform="translate(655.000,374.249) rotate(-62.937) scale(1.111)" stroke="#222" stroke-width="0.5" opacity="0.9"/>
<use href="#base-square" transform="translate(663.500,357.028) rotate(-63.952) scale(1.116)" stroke="#222" stroke-width="0.5" opacity="0.9"/>
<use href="#base-square" transform="translate(672.000,339.468) rotate(-63.842) scale(1.120)" stroke="#222" stroke-width="0.5" opacity="0.9"/>
<use href="#base-square" transform="translate(680.500,322.415) rotate(-62.585) scale(1.124)" stroke="#222" stroke-width="0.5" opacity="0.9"/>
<use href="#base-square" transform="translate(689.000,306.692) rotate(-59.927) scale(1.129)" stroke="#222" stroke-width="0.5" opacity="0.9"/>
<use href="#base-square" transform="translate(697.500,293.057) rotate(-55.272) scale(1.133)" stroke="#222" stroke-width="0.5" opacity="0.9"/>
<use href="#base-square" transform="translate(706.000,282.167) rotate(-47.436) scale(1.138)" stroke="#222" stroke-width="0.5" opacity="0.9"/>
<use href="#base-square" transform="translate(714.500,274.547) rotate(-34.316) scale(1.142)" stroke="#222" stroke-width="0.5" opacity="0.9"/>
<use href="#base-square" transform="translate(723.000,270.563) rotate(-13.677) scale(1.147)" stroke="#222" stroke-width="0.5" opacity="0.9"/>
<use href="#base-square" transform="translate(731.500,270.410) rotate(11.727) scale(1.151)" stroke="#222" stroke-width="0.5" opacity="0.9"/>
<use href="#base-square" transform="translate(740.000,274.092) rotate(32.964) scale(1.156)" stroke="#222" stroke-width="0.5" opacity="0.9"/>
<use href="#base-square" transform="translate(748.500,281.434) rotate(46.619) scale(1.160)" stroke="#222" stroke-width="0.5" opacity="0.9"/>
<use href="#base-square" transform="translate(757.000,292.082) rotate(54.786) scale(1.164)" stroke="#222" stroke-width="0.5" opacity="0.9"/>
<use href="#base-square" transform="translate(765.500,305.521) rotate(59.640) scale(1.169)" stroke="#222" stroke-width="0.5" opacity="0.9"/>
<use href="#base-square" transform="translate(774.000,321.104) rotate(62.430) scale(1.173)" stroke="#222" stroke-width="0.5" opacity="0.9"/>
<use href="#base-square" transform="translate(782.500,338.080) rotate(63.786) scale(1.178)" stroke="#222" stroke-width="0.5" opacity="0.9"/>
<use href="#base-square" transform="translate(791.000,355.631) rotate(63.984) scale(1.182)" stroke="#222" stroke-width="0.5" opacity="0.9"/>
<use href="#base-square" transform="translate(799.500,372.910) rotate(63.062) scale(1.187)" stroke="#222" stroke-width="0.5" opacity="0.9"/>
<use href="#base-square" transform="translate(808.000,389.085) rotate(60.838) scale(1.191)" stroke="#222" stroke-width="0.5" opacity="0.9"/>
<use href="#base-square" transform="translate(816.500,403.376) rotate(59.256) scale(1.196)" stroke="#222" stroke-width="0.5" opacity="0.9"/></g></svg>