<svg xmlns="http://www.w3.org/2000/svg" width="900" height="500" viewBox="0 0 900 500">
<defs>
  <symbol id="base-square" overflow="visible">
    <rect x="-8.0" y="-8.0" width="16" height="16" rx="3" ry="3" fill="#111827"/>
  </symbol>
</defs>
<rect x="0" y="0" width="900" height="500" fill="#fdf2f8"/><path d="M 70 420 C 250 60, 650 440, 830 120" fill="none" stroke="#9d174d" stroke-width="1.5" stroke-dasharray="4 3" opacity="0.7"/>
<g><use href="#base-square" transform="translate(70.000,420.000) rotate(-63.435) scale(0.700)" stroke="#111827" stroke-width="0.5" opacity="0.92"/>
<use href="#base-square" transform="translate(75.819,408.760) rotate(-62.589) scale(0.703)" stroke="#111827" stroke-width="0.5" opacity="0.92"/>
<use href="#base-square" transform="translate(81.784,398.012) rotate(-61.733) scale(0.706)" stroke="#111827" stroke-width="0.5" opacity="0.92"/>
<use href="#base-square" transform="translate(87.892,387.746) rotate(-60.869) scale(0.710)" stroke="#111827" stroke-width="0.5" opacity="0.92"/>
<use href="#base-square" transform="translate(94.140,377.952) rotate(-59.998) scale(0.713)" stroke="#111827" stroke-width="0.5" opacity="0.92"/>
<use href="#base-square" transform="translate(100.525,368.618) rotate(-59.123) scale(0.716)" stroke="#111827" stroke-width="0.5" opacity="0.92"/>
<use href="#base-square" transform="translate(107.043,359.734) rotate(-58.246) scale(0.719)" stroke="#111827" stroke-width="0.5" opacity="0.92"/>
<use href="#base-square" transform="translate(113.691,351.291) rotate(-57.371) scale(0.722)" stroke="#111827" stroke-width="0.5" opacity="0.92"/>
<use href="#base-square" transform="translate(120.467,343.277) rotate(-56.501) scale(0.726)" stroke="#111827" stroke-width="0.5" opacity="0.92"/>
<use href="#base-square" transform="translate(127.366,335.683) rotate(-55.640) scale(0.729)" stroke="#111827" stroke-width="0.5" opacity="0.92"/>
<use href="#base-square" transform="translate(134.387,328.497) rotate(-54.791) scale(0.732)" stroke="#111827" stroke-width="0.5" opacity="0.92"/>
<use href="#base-square" transform="translate(141.524,321.710) rotate(-53.960) scale(0.735)" stroke="#111827" stroke-width="0.5" opacity="0.92"/>
<use href="#base-square" transform="translate(148.777,315.311) rotate(-53.151) scale(0.738)" stroke="#111827" stroke-width="0.5" opacity="0.92"/>
<use href="#base-square" transform="translate(156.140,309.290) rotate(-52.368) scale(0.741)" stroke="#111827" stroke-width="0.5" opacity="0.92"/>
<use href="#base-square" transform="translate(163.612,303.636) rotate(-51.619) scale(0.745)" stroke="#111827" stroke-width="0.5" opacity="0.92"/>
<use href="#base-square" transform="translate(171.189,298.338) rotate(-50.909) scale(0.748)" stroke="#111827" stroke-width="0.5" opacity="0.92"/>
<use href="#base-square" transform="translate(178.867,293.388) rotate(-50.244) scale(0.751)" stroke="#111827" stroke-width="0.5" opacity="0.92"/>
<use href="#base-square" transform="translate(186.644,288.773) rotate(-49.630) scale(0.754)" stroke="#111827" stroke-width="0.5" opacity="0.92"/>
<use href="#base-square" transform="translate(194.516,284.484) rotate(-49.076) scale(0.757)" stroke="#111827" stroke-width="0.5" opacity="0.92"/>
<use href="#base-square" transform="translate(202.480,280.510) rotate(-48.588) scale(0.761)" stroke="#111827" stroke-width="0.5" opacity="0.92"/>
<use href="#base-square" transform="translate(210.533,276.841) rotate(-48.174) scale(0.764)" stroke="#111827" stroke-width="0.5" opacity="0.92"/>
<use href="#base-square" transform="translate(218.673,273.466) rotate(-47.842) scale(0.767)" stroke="#111827" stroke-width="0.5" opacity="0.92"/>
<use href="#base-square" transform="translate(226.894,270.376) rotate(-47.599) scale(0.770)" stroke="#111827" stroke-width="0.5" opacity="0.92"/>
<use href="#base-square" transform="translate(235.196,267.559) rotate(-47.456) scale(0.773)" stroke="#111827" stroke-width="0.5" opacity="0.92"/>
<use href="#base-square" transform="translate(243.573,265.005) rotate(-47.418) scale(0.777)" stroke="#111827" stroke-width="0.5" opacity="0.92"/>
<use href="#base-square" transform="translate(252.024,262.705) rotate(-47.496) scale(0.780)" stroke="#111827" stroke-width="0.5" opacity="0.92"/>
<use href="#base-square" transform="translate(260.544,260.646) rotate(-47.698) scale(0.783)" stroke="#111827" stroke-width="0.5" opacity="0.92"/>
<use href="#base-square" transform="translate(269.132,258.820) rotate(-48.031) scale(0.786)" stroke="#111827" stroke-width="0.5" opacity="0.92"/>
<use href="#base-square" transform="translate(277.782,257.215) rotate(-48.503) scale(0.789)" stroke="#111827" stroke-width="0.5" opacity="0.92"/>
<use href="#base-square" transform="translate(286.494,255.822) rotate(-49.121) scale(0.793)" stroke="#111827" stroke-width="0.5" opacity="0.92"/>
<use href="#base-square" transform="translate(295.262,254.629) rotate(-49.891) scale(0.796)" stroke="#111827" stroke-width="0.5" opacity="0.92"/>
<use href="#base-square" transform="translate(304.085,253.627) rotate(-50.818) scale(0.799)" stroke="#111827" stroke-width="0.5" opacity="0.92"/>
<use href="#base-square" transform="translate(312.958,252.805) rotate(-51.906) scale(0.802)" stroke="#111827" stroke-width="0.5" opacity="0.92"/>
<use href="#base-square" transform="translate(321.879,252.152) rotate(-53.154) scale(0.805)" stroke="#111827" stroke-width="0.5" opacity="0.92"/>
<use href="#base-square" transform="translate(330.845,251.659) rotate(-54.563) scale(0.809)" stroke="#111827" stroke-width="0.5" opacity="0.92"/>
<use href="#base-square" transform="translate(339.852,251.314) rotate(-56.127) scale(0.812)" stroke="#111827" stroke-width="0.5" opacity="0.92"/>
<use href="#base-square" transform="translate(348.897,251.108) rotate(-57.840) scale(0.815)" stroke="#111827" stroke-width="0.5" opacity="0.92"/>
<use href="#base-square" transform="translate(357.977,251.030) rotate(-59.691) scale(0.818)" stroke="#111827" stroke-width="0.5" opacity="0.92"/>
<use href="#base-square" transform="translate(367.088,251.069) rotate(-61.665) scale(0.821)" stroke="#111827" stroke-width="0.5" opacity="0.92"/>
<use href="#base-square" transform="translate(376.229,251.216) rotate(-63.746) scale(0.824)" stroke="#111827" stroke-width="0.5" opacity="0.92"/>
<use href="#base-square" transform="translate(385.394,251.459) rotate(-65.913) scale(0.828)" stroke="#111827" stroke-width="0.5" opacity="0.92"/>
<use href="#base-square" transform="translate(394.583,251.789) rotate(-68.143) scale(0.831)" stroke="#111827" stroke-width="0.5" opacity="0.92"/>
<use href="#base-square" transform="translate(403.790,252.195) rotate(-70.413) scale(0.834)" stroke="#111827" stroke-width="0.5" opacity="0.92"/>
<use href="#base-square" transform="translate(413.013,252.666) rotate(-72.699) scale(0.837)" stroke="#111827" stroke-width="0.5" opacity="0.92"/>
<use href="#base-square" transform="translate(422.248,253.193) rotate(-74.975) scale(0.840)" stroke="#111827" stroke-width="0.5" opacity="0.92"/>
<use href="#base-square" transform="translate(431.494,253.764) rotate(-77.222) scale(0.844)" stroke="#111827" stroke-width="0.5" opacity="0.92"/>
<use href="#base-square" transform="translate(440.745,254.370) rotate(-79.417) scale(0.847)" stroke="#111827" stroke-width="0.5" opacity="0.92"/>
<use href="#base-square" transform="translate(450.000,255.000) rotate(-81.545) scale(0.850)" stroke="#111827" stroke-width="0.5" opacity="0.92"/>
<use href="#base-square" transform="translate(459.255,255.643) rotate(-83.591) scale(0.853)" stroke="#111827" stroke-width="0.5" opacity="0.92"/>
<use href="#base-square" transform="translate(468.506,256.290) rotate(-85.546) scale(0.856)" stroke="#111827" stroke-width="0.5" opacity="0.92"/>
<use href="#base-square" transform="translate(477.752,256.929) rotate(-87.401) scale(0.860)" stroke="#111827" stroke-width="0.5" opacity="0.92"/>
<use href="#base-square" transform="translate(486.987,257.551) rotate(-89.152) scale(0.863)" stroke="#111827" stroke-width="0.5" opacity="0.92"/>
<use href="#base-square" transform="translate(496.210,258.145) rotate(-90.797) scale(0.866)" stroke="#111827" stroke-width="0.5" opacity="0.92"/>
<use href="#base-square" transform="translate(505.417,258.700) rotate(-92.336) scale(0.869)" stroke="#111827" stroke-width="0.5" opacity="0.92"/>
<use href="#base-square" transform="translate(514.606,259.206) rotate(-93.772) scale(0.872)" stroke="#111827" stroke-width="0.5" opacity="0.92"/>
<use href="#base-square" transform="translate(523.771,259.653) rotate(-95.106) scale(0.876)" stroke="#111827" stroke-width="0.5" opacity="0.92"/>
<use href="#base-square" transform="translate(532.912,260.031) rotate(-96.344) scale(0.879)" stroke="#111827" stroke-width="0.5" opacity="0.92"/>
<use href="#base-square" transform="translate(542.023,260.328) rotate(-97.489) scale(0.882)" stroke="#111827" stroke-width="0.5" opacity="0.92"/>
<use href="#base-square" transform="translate(551.103,260.535) rotate(-98.548) scale(0.885)" stroke="#111827" stroke-width="0.5" opacity="0.92"/>
<use href="#base-square" transform="translate(560.148,260.642) rotate(-99.524) scale(0.888)" stroke="#111827" stroke-width="0.5" opacity="0.92"/>
<use href="#base-square" transform="translate(569.155,260.636) rotate(-100.424) scale(0.891)" stroke="#111827" stroke-width="0.5" opacity="0.92"/>
<use href="#base-square" transform="translate(578.121,260.510) rotate(-101.253) scale(0.895)" stroke="#111827" stroke-width="0.5" opacity="0.92"/>
<use href="#base-square" transform="translate(587.042,260.251) rotate(-102.016) scale(0.898)" stroke="#111827" stroke-width="0.5" opacity="0.92"/>
<use href="#base-square" transform="translate(595.915,259.850) rotate(-102.718) scale(0.901)" stroke="#111827" stroke-width="0.5" opacity="0.92"/>
<use href="#base-square" transform="translate(604.738,259.296) rotate(-103.363) scale(0.904)" stroke="#111827" stroke-width="0.5" opacity="0.92"/>
<use href="#base-square" transform="translate(613.506,258.578) rotate(-103.956) scale(0.907)" stroke="#111827" stroke-width="0.5" opacity="0.92"/>
<use href="#base-square" transform="translate(622.218,257.687) rotate(-104.500) scale(0.911)" stroke="#111827" stroke-width="0.5" opacity="0.92"/>
<use href="#base-square" transform="translate(630.868,256.612) rotate(-105.000) scale(0.914)" stroke="#111827" stroke-width="0.5" opacity="0.92"/>
<use href="#base-square" transform="translate(639.456,255.343) rotate(-105.460) scale(0.917)" stroke="#111827" stroke-width="0.5" opacity="0.92"/>
<use href="#base-square" transform="translate(647.976,253.868) rotate(-105.882) scale(0.920)" stroke="#111827" stroke-width="0.5" opacity="0.92"/>
<use href="#base-square" transform="translate(656.427,252.179) rotate(-106.269) scale(0.923)" stroke="#111827" stroke-width="0.5" opacity="0.92"/>
<use href="#base-square" transform="translate(664.804,250.263) rotate(-106.625) scale(0.927)" stroke="#111827" stroke-width="0.5" opacity="0.92"/>
<use href="#base-square" transform="translate(673.106,248.112) rotate(-106.951) scale(0.930)" stroke="#111827" stroke-width="0.5" opacity="0.92"/>
<use href="#base-square" transform="translate(681.327,245.714) rotate(-107.250) scale(0.933)" stroke="#111827" stroke-width="0.5" opacity="0.92"/>
<use href="#base-square" transform="translate(689.467,243.059) rotate(-107.525) scale(0.936)" stroke="#111827" stroke-width="0.5" opacity="0.92"/>
<use href="#base-square" transform="translate(697.520,240.137) rotate(-107.776) scale(0.939)" stroke="#111827" stroke-width="0.5" opacity="0.92"/>
<use href="#base-square" transform="translate(705.484,236.938) rotate(-108.007) scale(0.943)" stroke="#111827" stroke-width="0.5" opacity="0.92"/>
<use href="#base-square" transform="translate(713.356,233.450) rotate(-108.219) scale(0.946)" stroke="#111827" stroke-width="0.5" opacity="0.92"/>
<use href="#base-square" transform="translate(721.133,229.664) rotate(-108.412) scale(0.949)" stroke="#111827" stroke-width="0.5" opacity="0.92"/>
<use href="#base-square" transform="translate(728.811,225.568) rotate(-108.589) scale(0.952)" stroke="#111827" stroke-width="0.5" opacity="0.92"/>
<use href="#base-square" transform="translate(736.388,221.154) rotate(-108.751) scale(0.955)" stroke="#111827" stroke-width="0.5" opacity="0.92"/>
<use href="#base-square" transform="translate(743.860,216.410) rotate(-108.899) scale(0.959)" stroke="#111827" stroke-width="0.5" opacity="0.92"/>
<use href="#base-square" transform="translate(751.223,211.325) rotate(-109.034) scale(0.962)" stroke="#111827" stroke-width="0.5" opacity="0.92"/>
<use href="#base-square" transform="translate(758.476,205.891) rotate(-109.157) scale(0.965)" stroke="#111827" stroke-width="0.5" opacity="0.92"/>
<use href="#base-square" transform="translate(765.613,200.095) rotate(-109.269) scale(0.968)" stroke="#111827" stroke-width="0.5" opacity="0.92"/>
<use href="#base-square" transform="translate(772.634,193.928) rotate(-109.371) scale(0.971)" stroke="#111827" stroke-width="0.5" opacity="0.92"/>
<use href="#base-square" transform="translate(779.533,187.379) rotate(-109.464) scale(0.974)" stroke="#111827" stroke-width="0.5" opacity="0.92"/>
<use href="#base-square" transform="translate(786.309,180.438) rotate(-109.547) scale(0.978)" stroke="#111827" stroke-width="0.5" opacity="0.92"/>
<use href="#base-square" transform="translate(792.957,173.095) rotate(-109.623) scale(0.981)" stroke="#111827" stroke-width="0.5" opacity="0.92"/>
<use href="#base-square" transform="translate(799.475,165.339) rotate(-109.691) scale(0.984)" stroke="#111827" stroke-width="0.5" opacity="0.92"/>
<use href="#base-square" transform="translate(805.860,157.159) rotate(-109.753) scale(0.987)" stroke="#111827" stroke-width="0.5" opacity="0.92"/>
<use href="#base-square" transform="translate(812.108,148.546) rotate(-109.807) scale(0.990)" stroke="#111827" stroke-width="0.5" opacity="0.92"/>
<use href="#base-square" transform="translate(818.216,139.489) rotate(-109.856) scale(0.994)" stroke="#111827" stroke-width="0.5" opacity="0.92"/>
<use href="#base-square" transform="translate(824.181,129.977) rotate(-109.900) scale(0.997)" stroke="#111827" stroke-width="0.5" opacity="0.92"/>
<use href="#base-square" transform="translate(830.000,120.000) rotate(-109.938) scale(1.000)" stroke="#111827" stroke-width="0.5" opacity="0.92"/></g></svg>