<svg xmlns="http://www.w3.org/2000/svg" width="100%" height="100%" viewBox="-133 -133 1068 925">
      
<g data-asset-id="ce3937f8-26b1-426d-804c-a4a3efd88cb1" data-asset-name="plugin-team-topology-card.svg" transform="translate(20, 20) scale(1)" opacity="1">
  <defs xmlns="http://www.w3.org/2000/svg">
    <!-- Gradients -->
    <linearGradient id="headerGrad" x1="0%" y1="0%" x2="100%" y2="100%">
      <stop offset="0%" style="stop-color:#3B82F6;stop-opacity:1"/>
      <stop offset="100%" style="stop-color:#8B5CF6;stop-opacity:1"/>
    </linearGradient>
    
    <linearGradient id="cardGrad" x1="0%" y1="0%" x2="0%" y2="100%">
      <stop offset="0%" style="stop-color:#1E293B;stop-opacity:1"/>
      <stop offset="100%" style="stop-color:#0F172A;stop-opacity:1"/>
    </linearGradient>

    <!-- Shadow -->
    <filter id="cardShadow" x="-20%" y="-20%" width="140%" height="140%">
      <feGaussianBlur in="SourceAlpha" stdDeviation="8"/>
      <feOffset dx="0" dy="4" result="offsetblur"/>
      <feComponentTransfer>
        <feFuncA type="linear" slope="0.3"/>
      </feComponentTransfer>
      <feMerge>
        <feMergeNode/>
        <feMergeNode in="SourceGraphic"/>
      </feMerge>
    </filter>

    <!-- Glow effect for icons -->
    <filter id="glow">
      <feGaussianBlur stdDeviation="2" result="coloredBlur"/>
      <feMerge>
        <feMergeNode in="coloredBlur"/>
        <feMergeNode in="SourceGraphic"/>
      </feMerge>
    </filter>
  </defs>

  <!-- Main Card -->
  <g xmlns="http://www.w3.org/2000/svg" filter="url(#cardShadow)">
    <rect x="20" y="20" width="762.3038940429688" height="619.223876953125" rx="16" fill="url(#cardGrad)" stroke="#334155" stroke-width="2"/>
  </g>

  <!-- Header Section -->
  <rect xmlns="http://www.w3.org/2000/svg" x="20" y="20" width="760" height="120" rx="16" fill="url(#headerGrad)"/>
  
  <!-- Team Icon -->
  <g xmlns="http://www.w3.org/2000/svg" transform="translate(50, 45)">
    <circle cx="25" cy="25" r="30" fill="rgba(255,255,255,0.2)" filter="url(#glow)"/>
    <!-- Simplified plugin icon -->
    <rect x="12" y="15" width="26" height="20" rx="4" fill="white" opacity="0.9"/>
    <circle cx="25" cy="25" r="4" fill="url(#headerGrad)"/>
  </g>

  <!-- Title -->
  <text xmlns="http://www.w3.org/2000/svg" x="110" y="65" font-family="Inter, system-ui, sans-serif" font-size="28" font-weight="800" fill="white">
    Plugin Teams
  </text>
  <text xmlns="http://www.w3.org/2000/svg" x="110" y="95" font-family="Inter, system-ui, sans-serif" font-size="18" font-weight="500" fill="rgba(255,255,255,0.85)">
    Stream-Aligned Topology
  </text>

  <!-- Tags -->
  <g xmlns="http://www.w3.org/2000/svg" transform="translate(110, 108)">
    <rect width="110" height="24" rx="12" fill="rgba(255,255,255,0.2)"/>
    <text x="12" y="16" font-family="Inter" font-size="12" font-weight="600" fill="white">Vertical Slice</text>
  </g>
  <g xmlns="http://www.w3.org/2000/svg" transform="translate(230, 108)">
    <rect width="100" height="24" rx="12" fill="rgba(255,255,255,0.2)"/>
    <text x="12" y="16" font-family="Inter" font-size="12" font-weight="600" fill="white">2-6 People</text>
  </g>

  <!-- Content Grid -->
  <g xmlns="http://www.w3.org/2000/svg" transform="translate(40, 160)">
    
    <!-- Nature Section -->
    <g>
      <!-- Section Header with Icon -->
      <g>
        <circle cx="8" cy="8" r="8" fill="#3B82F6" opacity="0.2"/>
        <circle cx="8" cy="8" r="3" fill="#3B82F6"/>
        <text x="24" y="13" font-family="Inter" font-size="16" font-weight="700" fill="#E2E8F0">Nature</text>
      </g>
      
      <!-- Content Box -->
      <rect x="0" y="24" width="340" height="80" rx="8" fill="#1E293B" stroke="#334155" stroke-width="1"/>
      <text x="16" y="48" font-family="Inter" font-size="14" fill="#CBD5E1">
        <tspan x="16" dy="0">Each plugin is a vertical slice delivering</tspan>
        <tspan x="16" dy="20">end-to-end business capability</tspan>
        <tspan x="16" dy="20" font-style="italic" fill="#94A3B8">(LibraryPanel, ControlPanel, Canvas UI...)</tspan>
      </text>
    </g>

    <!-- Structure Section -->
    <g transform="translate(0, 120)">
      <g>
        <circle cx="8" cy="8" r="8" fill="#10B981" opacity="0.2"/>
        <circle cx="8" cy="8" r="3" fill="#10B981"/>
        <text x="24" y="13" font-family="Inter" font-size="16" font-weight="700" fill="#E2E8F0">Structure</text>
      </g>
      
      <rect x="0" y="24" width="340" height="80" rx="8" fill="#1E293B" stroke="#334155" stroke-width="1"/>
      <text x="16" y="48" font-family="Inter" font-size="14" fill="#CBD5E1">
        <tspan x="16" dy="0">Small teams: 2–6 people per plugin</tspan>
        <tspan x="16" dy="20">or per "family" of related plugins</tspan>
        <tspan x="16" dy="20" font-style="italic" fill="#94A3B8">for shared context</tspan>
      </text>
    </g>

    <!-- Focus Section -->
    <g transform="translate(0, 240)">
      <g>
        <circle cx="8" cy="8" r="8" fill="#F59E0B" opacity="0.2"/>
        <circle cx="8" cy="8" r="3" fill="#F59E0B"/>
        <text x="24" y="13" font-family="Inter" font-size="16" font-weight="700" fill="#E2E8F0">Focus Areas</text>
      </g>
      
      <rect x="0" y="24" width="340" height="140" rx="8" fill="#1E293B" stroke="#334155" stroke-width="1"/>
      
      <!-- Bullet points with icons -->
      <g transform="translate(16, 44)">
        <circle cx="5" cy="5" r="3" fill="#60A5FA"/>
        <text x="16" y="9" font-family="Inter" font-size="13" fill="#CBD5E1">
          Orchestration logic (sequences/beats)
        </text>
      </g>
      <g transform="translate(16, 74)">
        <circle cx="5" cy="5" r="3" fill="#60A5FA"/>
        <text x="16" y="9" font-family="Inter" font-size="13" fill="#CBD5E1">
          Plugin UI panels (React slot exports)
        </text>
      </g>
      <g transform="translate(16, 104)">
        <circle cx="5" cy="5" r="3" fill="#60A5FA"/>
        <text x="16" y="9" font-family="Inter" font-size="13" fill="#CBD5E1">
          Own CI/CD pipelines &amp; versioning
        </text>
      </g>
    </g>

    <!-- Right Column -->
    
    <!-- Topology Fit -->
    <g transform="translate(380, 0)">
      <g>
        <circle cx="8" cy="8" r="8" fill="#8B5CF6" opacity="0.2"/>
        <circle cx="8" cy="8" r="3" fill="#8B5CF6"/>
        <text x="24" y="13" font-family="Inter" font-size="16" font-weight="700" fill="#E2E8F0">Topology Fit</text>
      </g>
      
      <rect x="0" y="24" width="340" height="100" rx="8" fill="#1E293B" stroke="#334155" stroke-width="1"/>
      
      <!-- Highlighted badge -->
      <g transform="translate(16, 44)">
        <rect width="180" height="32" rx="16" fill="#8B5CF6" opacity="0.2" stroke="#8B5CF6" stroke-width="2"/>
        <text x="20" y="21" font-family="Inter" font-size="14" font-weight="700" fill="#C4B5FD">
          Stream-Aligned
        </text>
      </g>
      
      <text x="16" y="100" font-family="Inter" font-size="13" fill="#94A3B8">
        Organized around flow of work for
      </text>
      <text x="16" y="116" font-family="Inter" font-size="13" fill="#94A3B8">
        specific business capabilities
      </text>
    </g>

    <!-- Key Characteristics -->
    <g transform="translate(380, 140)">
      <g>
        <circle cx="8" cy="8" r="8" fill="#EC4899" opacity="0.2"/>
        <circle cx="8" cy="8" r="3" fill="#EC4899"/>
        <text x="24" y="13" font-family="Inter" font-size="16" font-weight="700" fill="#E2E8F0">Key Characteristics</text>
      </g>
      
      <rect x="0" y="24" width="340" height="180" rx="8" fill="#1E293B" stroke="#334155" stroke-width="1"/>
      
      <!-- Feature list with icons -->
      <g transform="translate(16, 44)">
        <rect x="0" y="0" width="4" height="20" rx="2" fill="#10B981"/>
        <text x="12" y="14" font-family="Inter" font-size="13" fill="#CBD5E1">
          End-to-end ownership
        </text>
      </g>
      <g transform="translate(16, 74)">
        <rect x="0" y="0" width="4" height="20" rx="2" fill="#10B981"/>
        <text x="12" y="14" font-family="Inter" font-size="13" fill="#CBD5E1">
          Fast feedback loops
        </text>
      </g>
      <g transform="translate(16, 104)">
        <rect x="0" y="0" width="4" height="20" rx="2" fill="#10B981"/>
        <text x="12" y="14" font-family="Inter" font-size="13" fill="#CBD5E1">
          Minimal dependencies
        </text>
      </g>
      <g transform="translate(16, 134)">
        <rect x="0" y="0" width="4" height="20" rx="2" fill="#10B981"/>
        <text x="12" y="14" font-family="Inter" font-size="13" fill="#CBD5E1">
          Clear interfaces via manifests
        </text>
      </g>
    </g>

    <!-- Collaboration Box -->
    <g transform="translate(380, 360)">
      <g>
        <circle cx="8" cy="8" r="8" fill="#06B6D4" opacity="0.2"/>
        <circle cx="8" cy="8" r="3" fill="#06B6D4"/>
        <text x="24" y="13" font-family="Inter" font-size="16" font-weight="700" fill="#E2E8F0">Collaboration</text>
      </g>
      
      <rect x="0" y="24" width="340" height="60" rx="8" fill="#1E293B" stroke="#334155" stroke-width="1"/>
      <text x="16" y="48" font-family="Inter" font-size="13" fill="#CBD5E1">
        <tspan x="16" dy="0">Consume Host SDK as X-as-a-Service</tspan>
        <tspan x="16" dy="20">Support from Thin Host E2E team</tspan>
      </text>
    </g>

  </g>

  <!-- Footer -->
  <g xmlns="http://www.w3.org/2000/svg" transform="translate(20, 560)">
    
    <text x="380" y="38" text-anchor="middle" font-family="Inter" font-size="12" fill="#64748B" transform="translate(-5, 26)">
      RenderX Team Topologies — Plugin Teams Pattern
    </text>
  </g>
</g>
    <g data-asset-id="20907157-e144-4503-82f9-9194806f70f6" data-asset-name="nature-icon.svg" transform="translate(318.44439697265625, 176.58328247070312) scale(0.28173085392104, 0.3143794929418287)" opacity="1">
  <defs xmlns="http://www.w3.org/2000/svg">
    <!-- Gradients for each icon -->
    <linearGradient id="blueGrad" x1="0%" y1="0%" x2="100%" y2="100%">
      <stop offset="0%" style="stop-color:#3B82F6"/>
      <stop offset="100%" style="stop-color:#2563EB"/>
    </linearGradient>
    
    <linearGradient id="greenGrad" x1="0%" y1="0%" x2="100%" y2="100%">
      <stop offset="0%" style="stop-color:#10B981"/>
      <stop offset="100%" style="stop-color:#059669"/>
    </linearGradient>
    
    <linearGradient id="orangeGrad" x1="0%" y1="0%" x2="100%" y2="100%">
      <stop offset="0%" style="stop-color:#F59E0B"/>
      <stop offset="100%" style="stop-color:#D97706"/>
    </linearGradient>
    
    <linearGradient id="purpleGrad" x1="0%" y1="0%" x2="100%" y2="100%">
      <stop offset="0%" style="stop-color:#8B5CF6"/>
      <stop offset="100%" style="stop-color:#7C3AED"/>
    </linearGradient>
    
    <linearGradient id="pinkGrad" x1="0%" y1="0%" x2="100%" y2="100%">
      <stop offset="0%" style="stop-color:#EC4899"/>
      <stop offset="100%" style="stop-color:#DB2777"/>
    </linearGradient>
    
    <linearGradient id="cyanGrad" x1="0%" y1="0%" x2="100%" y2="100%">
      <stop offset="0%" style="stop-color:#06B6D4"/>
      <stop offset="100%" style="stop-color:#0891B2"/>
    </linearGradient>

    <!-- Glow effect -->
    <filter id="glow">
      <feGaussianBlur stdDeviation="3" result="coloredBlur"/>
      <feMerge>
        <feMergeNode in="coloredBlur"/>
        <feMergeNode in="SourceGraphic"/>
      </feMerge>
    </filter>
  </defs>

  <!-- Background -->
  

  <!-- Labels -->
  
  
  
  
  
  
  
  

  
  
  
  
  
  
  
  

  <!-- 1. NATURE - Vertical slice (layered cake) -->
  <g xmlns="http://www.w3.org/2000/svg" transform="translate(102, 99)">
    <circle cx="100" cy="100" r="90" fill="url(#blueGrad)" opacity="0.1" filter="url(#glow)"/>
    
    <!-- Layered cake representing vertical slice -->
    <g transform="translate(40, 50)">
      <!-- Bottom layer -->
      <ellipse cx="60" cy="90" rx="50" ry="12" fill="#3B82F6" opacity="0.8"/>
      <rect x="10" y="80" width="100" height="25" fill="#3B82F6"/>
      <ellipse cx="60" cy="80" rx="50" ry="12" fill="#60A5FA"/>
      
      <!-- Middle layer -->
      <ellipse cx="60" cy="65" rx="50" ry="12" fill="#3B82F6" opacity="0.8"/>
      <rect x="10" y="55" width="100" height="25" fill="#3B82F6"/>
      <ellipse cx="60" cy="55" rx="50" ry="12" fill="#60A5FA"/>
      
      <!-- Top layer -->
      <ellipse cx="60" cy="40" rx="50" ry="12" fill="#3B82F6" opacity="0.8"/>
      <rect x="10" y="30" width="100" height="25" fill="#3B82F6"/>
      <ellipse cx="60" cy="30" rx="50" ry="12" fill="#60A5FA"/>
      
      <!-- Vertical slice indicator -->
      <line x1="60" y1="25" x2="60" y2="95" stroke="#FCD34D" stroke-width="4" stroke-dasharray="4,4"/>
      <polygon points="60,20 55,28 65,28" fill="#FCD34D"/>
      <polygon points="60,100 55,92 65,92" fill="#FCD34D"/>
    </g>
  </g>

  <!-- 2. STRUCTURE - 6 people in team formation -->
  

  <!-- 3. FOCUS - Gear/cog for orchestration -->
  

  <!-- 4. TOPOLOGY FIT - Stream/flow arrows -->
  

  <!-- 5. CHARACTERISTICS - Checkmarks in circle -->
  

  <!-- 6. COLLABORATION - Connected nodes -->
  
</g>
<g data-asset-id="structure-icon" data-asset-name="structure-icon.svg" transform="translate(318.44439697265625, 296.58328247070312) scale(0.28173085392104, 0.3143794929418287)" opacity="1">
  <!-- Team of 6 people in circular formation -->
  <g xmlns="http://www.w3.org/2000/svg" transform="translate(102, 99)">
    <circle cx="100" cy="100" r="90" fill="url(#greenGrad)" opacity="0.1" filter="url(#glow)">
      <animate attributeName="opacity" values="0.1;0.2;0.1" dur="3s" repeatCount="indefinite"/>
    </circle>
    
    <g transform="translate(100, 100)">
      <!-- Person 1 (top) -->
      <g transform="translate(0, -50)">
        <circle cx="0" cy="0" r="12" fill="#10B981">
          <animate attributeName="r" values="12;14;12" dur="2s" repeatCount="indefinite"/>
        </circle>
        <rect x="-8" y="10" width="16" height="20" rx="8" fill="#10B981"/>
      </g>
      
      <!-- Person 2 (top right) -->
      <g transform="translate(43, -25)">
        <circle cx="0" cy="0" r="12" fill="#34D399">
          <animate attributeName="r" values="12;14;12" dur="2s" begin="0.3s" repeatCount="indefinite"/>
        </circle>
        <rect x="-8" y="10" width="16" height="20" rx="8" fill="#34D399"/>
      </g>
      
      <!-- Person 3 (bottom right) -->
      <g transform="translate(43, 25)">
        <circle cx="0" cy="0" r="12" fill="#10B981">
          <animate attributeName="r" values="12;14;12" dur="2s" begin="0.6s" repeatCount="indefinite"/>
        </circle>
        <rect x="-8" y="10" width="16" height="20" rx="8" fill="#10B981"/>
      </g>
      
      <!-- Person 4 (bottom) -->
      <g transform="translate(0, 50)">
        <circle cx="0" cy="0" r="12" fill="#34D399">
          <animate attributeName="r" values="12;14;12" dur="2s" begin="0.9s" repeatCount="indefinite"/>
        </circle>
        <rect x="-8" y="10" width="16" height="20" rx="8" fill="#34D399"/>
      </g>
      
      <!-- Person 5 (bottom left) -->
      <g transform="translate(-43, 25)">
        <circle cx="0" cy="0" r="12" fill="#10B981">
          <animate attributeName="r" values="12;14;12" dur="2s" begin="1.2s" repeatCount="indefinite"/>
        </circle>
        <rect x="-8" y="10" width="16" height="20" rx="8" fill="#10B981"/>
      </g>
      
      <!-- Person 6 (top left) -->
      <g transform="translate(-43, -25)">
        <circle cx="0" cy="0" r="12" fill="#34D399">
          <animate attributeName="r" values="12;14;12" dur="2s" begin="1.5s" repeatCount="indefinite"/>
        </circle>
        <rect x="-8" y="10" width="16" height="20" rx="8" fill="#34D399"/>
      </g>
      
      <!-- Connection circle -->
      <circle cx="0" cy="0" r="45" fill="none" stroke="#10B981" stroke-width="2" stroke-dasharray="5,5" opacity="0.5">
        <animateTransform attributeName="transform" type="rotate" from="0" to="360" dur="20s" repeatCount="indefinite"/>
        <animate attributeName="opacity" values="0.5;0.8;0.5" dur="3s" repeatCount="indefinite"/>
      </circle>
    </g>
  </g>
</g>
<g data-asset-id="focus-icon" data-asset-name="focus-icon.svg" transform="translate(318.44439697265625, 416.58328247070312) scale(0.28173085392104, 0.3143794929418287)" opacity="1">
  <!-- Gear/cog representing orchestration -->
  <g xmlns="http://www.w3.org/2000/svg" transform="translate(102, 99)">
    <circle cx="100" cy="100" r="90" fill="url(#orangeGrad)" opacity="0.1" filter="url(#glow)">
      <animate attributeName="opacity" values="0.1;0.2;0.1" dur="3s" repeatCount="indefinite"/>
    </circle>
    
    <g transform="translate(100, 100)">
      <g>
        <animateTransform attributeName="transform" type="rotate" from="0" to="360" dur="8s" repeatCount="indefinite"/>
        
        <!-- Outer gear teeth -->
        <path d="M 0,-55 L 10,-50 L 10,-40 L 0,-35 L -10,-40 L -10,-50 Z" fill="#F59E0B"/>
        <path d="M 0,-55 L 10,-50 L 10,-40 L 0,-35 L -10,-40 L -10,-50 Z" fill="#F59E0B" transform="rotate(60)"/>
        <path d="M 0,-55 L 10,-50 L 10,-40 L 0,-35 L -10,-40 L -10,-50 Z" fill="#F59E0B" transform="rotate(120)"/>
        <path d="M 0,-55 L 10,-50 L 10,-40 L 0,-35 L -10,-40 L -10,-50 Z" fill="#F59E0B" transform="rotate(180)"/>
        <path d="M 0,-55 L 10,-50 L 10,-40 L 0,-35 L -10,-40 L -10,-50 Z" fill="#F59E0B" transform="rotate(240)"/>
        <path d="M 0,-55 L 10,-50 L 10,-40 L 0,-35 L -10,-40 L -10,-50 Z" fill="#F59E0B" transform="rotate(300)"/>
        
        <!-- Main gear body -->
        <circle cx="0" cy="0" r="35" fill="#F59E0B"/>
      </g>
      
      <circle cx="0" cy="0" r="15" fill="#0F172A">
        <animate attributeName="r" values="15;17;15" dur="4s" repeatCount="indefinite"/>
      </circle>
      
      <!-- Inner accent -->
      <circle cx="0" cy="0" r="25" fill="none" stroke="#FCD34D" stroke-width="2" opacity="0.6">
        <animate attributeName="opacity" values="0.6;1;0.6" dur="2s" repeatCount="indefinite"/>
      </circle>
      
      <!-- Energy pulses -->
      <circle cx="0" cy="0" r="35" fill="none" stroke="#FCD34D" stroke-width="3" opacity="0">
        <animate attributeName="r" from="35" to="60" dur="2s" repeatCount="indefinite"/>
        <animate attributeName="opacity" from="0.8" to="0" dur="2s" repeatCount="indefinite"/>
      </circle>
    </g>
  </g>
</g>
<g data-asset-id="topology-fit-icon" data-asset-name="topology-fit-icon.svg" transform="translate(698.44439697265625, 176.58328247070312) scale(0.28173085392104, 0.3143794929418287)" opacity="1">
  <!-- Stream/flow representation -->
  <g xmlns="http://www.w3.org/2000/svg" transform="translate(102, 99)">
    <circle cx="100" cy="100" r="90" fill="url(#purpleGrad)" opacity="0.1" filter="url(#glow)"/>
    
    <g transform="translate(40, 70)">
      <!-- Multiple flowing arrows -->
      <g opacity="0.8">
        <path d="M 10,10 L 130,10" stroke="#8B5CF6" stroke-width="8" stroke-linecap="round"/>
        <polygon points="140,10 130,5 130,15" fill="#8B5CF6"/>
      </g>
      <g opacity="0.6" transform="translate(0, 25)">
        <path d="M 10,10 L 130,10" stroke="#A78BFA" stroke-width="8" stroke-linecap="round"/>
        <polygon points="140,10 130,5 130,15" fill="#A78BFA"/>
      </g>
      <g opacity="0.9" transform="translate(0, 50)">
        <path d="M 10,10 L 130,10" stroke="#8B5CF6" stroke-width="8" stroke-linecap="round"/>
        <polygon points="140,10 130,5 130,15" fill="#8B5CF6"/>
      </g>
      
      <!-- Flow particles -->
      <circle cx="40" cy="10" r="4" fill="#C4B5FD">
        <animate attributeName="cx" from="10" to="140" dur="2s" repeatCount="indefinite"/>
      </circle>
      <circle cx="60" cy="35" r="4" fill="#DDD6FE">
        <animate attributeName="cx" from="10" to="140" dur="2.5s" repeatCount="indefinite"/>
      </circle>
      <circle cx="80" cy="60" r="4" fill="#C4B5FD">
        <animate attributeName="cx" from="10" to="140" dur="1.8s" repeatCount="indefinite"/>
      </circle>
    </g>
  </g>
</g>
<g data-asset-id="characteristics-icon" data-asset-name="characteristics-icon.svg" transform="translate(698.44439697265625, 316.58328247070312) scale(0.28173085392104, 0.3143794929418287)" opacity="1">
  <!-- Shield with checkmarks -->
  <g xmlns="http://www.w3.org/2000/svg" transform="translate(102, 99)">
    <circle cx="100" cy="100" r="90" fill="url(#pinkGrad)" opacity="0.1" filter="url(#glow)">
      <animate attributeName="opacity" values="0.1;0.2;0.1" dur="3s" repeatCount="indefinite"/>
    </circle>
    
    <g transform="translate(100, 80)">
      <!-- Shield shape -->
      <path d="M 0,-40 L 35,-35 L 35,15 Q 35,45 0,60 Q -35,45 -35,15 L -35,-35 Z" fill="#EC4899" opacity="0.8">
        <animate attributeName="opacity" values="0.8;0.95;0.8" dur="3s" repeatCount="indefinite"/>
      </path>
      <path d="M 0,-40 L 35,-35 L 35,15 Q 35,45 0,60 Q -35,45 -35,15 L -35,-35 Z" fill="none" stroke="#F9A8D4" stroke-width="2">
        <animate attributeName="stroke-width" values="2;3;2" dur="2s" repeatCount="indefinite"/>
      </path>
      
      <!-- Checkmarks with animation -->
      <g stroke="#FFF" stroke-width="4" stroke-linecap="round" fill="none">
        <path d="M -20,-10 L -10,0 L 10,-20" stroke-dasharray="40" stroke-dashoffset="40">
          <animate attributeName="stroke-dashoffset" from="40" to="0" dur="0.6s" begin="0s" fill="freeze"/>
        </path>
        <path d="M -20,10 L -10,20 L 10,0" stroke-dasharray="40" stroke-dashoffset="40">
          <animate attributeName="stroke-dashoffset" from="40" to="0" dur="0.6s" begin="0.3s" fill="freeze"/>
        </path>
        <path d="M -15,30 L -5,40 L 15,20" stroke-dasharray="40" stroke-dashoffset="40">
          <animate attributeName="stroke-dashoffset" from="40" to="0" dur="0.6s" begin="0.6s" fill="freeze"/>
        </path>
      </g>
      
      <!-- Sparkles -->
      <circle cx="25" cy="-25" r="3" fill="#FFF" opacity="0">
        <animate attributeName="opacity" values="0;1;0" dur="2s" begin="1s" repeatCount="indefinite"/>
      </circle>
      <circle cx="-25" cy="0" r="2" fill="#FFF" opacity="0">
        <animate attributeName="opacity" values="0;1;0" dur="2s" begin="1.3s" repeatCount="indefinite"/>
      </circle>
      <circle cx="30" cy="25" r="2.5" fill="#FFF" opacity="0">
        <animate attributeName="opacity" values="0;1;0" dur="2s" begin="1.6s" repeatCount="indefinite"/>
      </circle>
    </g>
  </g>
</g>
<g data-asset-id="collaboration-icon" data-asset-name="collaboration-icon.svg" transform="translate(698.44439697265625, 536.58328247070312) scale(0.28173085392104, 0.3143794929418287)" opacity="1">
  <!-- Network of connected nodes -->
  <g xmlns="http://www.w3.org/2000/svg" transform="translate(102, 99)">
    <circle cx="100" cy="100" r="90" fill="url(#cyanGrad)" opacity="0.1" filter="url(#glow)"/>
    
    <g transform="translate(100, 100)">
      <!-- Connection lines -->
      <line x1="-40" y1="-30" x2="40" y2="-30" stroke="#06B6D4" stroke-width="3" opacity="0.5"/>
      <line x1="-40" y1="-30" x2="0" y2="30" stroke="#06B6D4" stroke-width="3" opacity="0.5"/>
      <line x1="40" y1="-30" x2="0" y2="30" stroke="#06B6D4" stroke-width="3" opacity="0.5"/>
      <line x1="-40" y1="-30" x2="-30" y2="40" stroke="#06B6D4" stroke-width="3" opacity="0.5"/>
      <line x1="40" y1="-30" x2="30" y2="40" stroke="#06B6D4" stroke-width="3" opacity="0.5"/>
      <line x1="0" y1="30" x2="-30" y2="40" stroke="#06B6D4" stroke-width="3" opacity="0.5"/>
      <line x1="0" y1="30" x2="30" y2="40" stroke="#06B6D4" stroke-width="3" opacity="0.5"/>
      
      <!-- Nodes -->
      <circle cx="-40" cy="-30" r="12" fill="#06B6D4"/>
      <circle cx="40" cy="-30" r="12" fill="#06B6D4"/>
      <circle cx="0" cy="30" r="12" fill="#22D3EE"/>
      <circle cx="-30" cy="40" r="10" fill="#06B6D4"/>
      <circle cx="30" cy="40" r="10" fill="#06B6D4"/>
      
      <!-- Central hub (larger) -->
      <circle cx="0" cy="0" r="18" fill="#22D3EE"/>
      <circle cx="0" cy="0" r="8" fill="#FFF" opacity="0.5"/>
      
      <!-- Pulse animation on central node -->
      <circle cx="0" cy="0" r="18" fill="none" stroke="#22D3EE" stroke-width="2" opacity="0.8">
        <animate attributeName="r" from="18" to="35" dur="2s" repeatCount="indefinite"/>
        <animate attributeName="opacity" from="0.8" to="0" dur="2s" repeatCount="indefinite"/>
      </circle>
    </g>
  </g>
</g></svg>