<svg xmlns="http://www.w3.org/2000/svg" viewBox="-163 -163 1103 960" role="img" aria-label="Thin Host Team - Enabling &amp; E2E Testing">
  <defs>
    <!-- Gradients -->
    <linearGradient id="headerGrad" x1="0%" y1="0%" x2="100%" y2="100%">
      <stop offset="0%" style="stop-color:#7C3AED;stop-opacity:1"/>
      <stop offset="100%" style="stop-color:#EC4899;stop-opacity:1"/>
    </linearGradient>
    
    <linearGradient id="cardGrad" x1="0%" y1="0%" x2="0%" y2="100%">
      <stop offset="0%" style="stop-color:#1E293B;stop-opacity:1"/>
      <stop offset="100%" style="stop-color:#0F172A;stop-opacity:1"/>
    </linearGradient>

    <!-- Shadow -->
    <filter id="cardShadow" x="-20%" y="-20%" width="140%" height="140%">
      <feGaussianBlur in="SourceAlpha" stdDeviation="8"/>
      <feOffset dx="0" dy="4" result="offsetblur"/>
      <feComponentTransfer>
        <feFuncA type="linear" slope="0.3"/>
      </feComponentTransfer>
      <feMerge>
        <feMergeNode/>
        <feMergeNode in="SourceGraphic"/>
      </feMerge>
    </filter>

    <!-- Glow effect for icons -->
    <filter id="glow">
      <feGaussianBlur stdDeviation="2" result="coloredBlur"/>
      <feMerge>
        <feMergeNode in="coloredBlur"/>
        <feMergeNode in="SourceGraphic"/>
      </feMerge>
    </filter>
  </defs>

  <!-- Main Card -->
  <g filter="url(#cardShadow)">
    <rect x="20" y="20" width="762.3038940429688" height="619.223876953125" rx="16" fill="url(#cardGrad)" stroke="#334155" stroke-width="2"/>
  </g>

  <!-- Header Section -->
  <rect x="20" y="20" width="760" height="120" rx="16" fill="url(#headerGrad)"/>
  
  <!-- Team Icon -->
  <g transform="translate(50, 45)">
    <circle cx="25" cy="25" r="30" fill="rgba(255,255,255,0.2)" filter="url(#glow)"/>
    <!-- Testing icon - checkmark in shield -->
    <path d="M 25 13 L 18 18 L 18 28 C 18 32 21 35 25 37 C 29 35 32 32 32 28 L 32 18 Z" fill="white" opacity="0.9"/>
    <path d="M 22 25 L 24 27 L 28 22" stroke="url(#headerGrad)" stroke-width="2" fill="none" stroke-linecap="round"/>
  </g>

  <!-- Title -->
  <text x="110" y="65" font-family="Inter, system-ui, sans-serif" font-size="28" font-weight="800" fill="white">
    Thin Host Team
  </text>
  <text x="110" y="95" font-family="Inter, system-ui, sans-serif" font-size="18" font-weight="500" fill="rgba(255,255,255,0.85)">
    Enabling &amp; E2E Testing
  </text>

  <!-- Tags -->
  <g transform="translate(110, 108)">
    <rect width="120" height="24" rx="12" fill="rgba(255,255,255,0.2)"/>
    <text x="12" y="16" font-family="Inter" font-size="12" font-weight="600" fill="white">E2E Specialists</text>
  </g>
  <g transform="translate(240, 108)">
    <rect width="140" height="24" rx="12" fill="rgba(255,255,255,0.2)"/>
    <text x="12" y="16" font-family="Inter" font-size="12" font-weight="600" fill="white">Integration Focus</text>
  </g>

  <!-- Content Grid -->
  <g transform="translate(40, 160)">
    
    <!-- Nature Section -->
    <g>
      <!-- Section Header with Icon -->
      <g>
        <circle cx="8" cy="8" r="8" fill="#7C3AED" opacity="0.2"/>
        <circle cx="8" cy="8" r="3" fill="#7C3AED"/>
        <text x="24" y="13" font-family="Inter" font-size="16" font-weight="700" fill="#E2E8F0">Nature</text>
      </g>
      
      <!-- Content Box -->
      <rect x="0" y="24" width="340" height="80" rx="8" fill="#1E293B" stroke="#334155" stroke-width="1"/>
      <text x="16" y="48" font-family="Inter" font-size="14" fill="#CBD5E1">
        <tspan x="16" dy="0">Owns the thin shell orchestrating</tspan>
        <tspan x="16" dy="20">slots, manifest loader, fallbacks</tspan>
        <tspan x="16" dy="20" font-style="italic" fill="#94A3B8">Ensures plugins integrate seamlessly</tspan>
      </text>
    </g>

    <!-- Structure Section -->
    <g transform="translate(0, 120)">
      <g>
        <circle cx="8" cy="8" r="8" fill="#10B981" opacity="0.2"/>
        <circle cx="8" cy="8" r="3" fill="#10B981"/>
        <text x="24" y="13" font-family="Inter" font-size="16" font-weight="700" fill="#E2E8F0">Structure</text>
      </g>
      
      <rect x="0" y="24" width="340" height="80" rx="8" fill="#1E293B" stroke="#334155" stroke-width="1"/>
      <text x="16" y="48" font-family="Inter" font-size="14" fill="#CBD5E1">
        <tspan x="16" dy="0">Fewer devs, more E2E test engineers</tspan>
        <tspan x="16" dy="20">with deep orchestration knowledge</tspan>
        <tspan x="16" dy="20" font-style="italic" fill="#94A3B8">Playwright, Cypress expertise</tspan>
      </text>
    </g>

    <!-- Focus Section -->
    <g transform="translate(0, 240)">
      <g>
        <circle cx="8" cy="8" r="8" fill="#F59E0B" opacity="0.2"/>
        <circle cx="8" cy="8" r="3" fill="#F59E0B"/>
        <text x="24" y="13" font-family="Inter" font-size="16" font-weight="700" fill="#E2E8F0">Focus Areas</text>
      </g>
      
      <rect x="0" y="24" width="340" height="140" rx="8" fill="#1E293B" stroke="#334155" stroke-width="1"/>
      
      <!-- Bullet points with icons -->
      <g transform="translate(16, 44)">
        <circle cx="5" cy="5" r="3" fill="#A78BFA"/>
        <text x="16" y="9" font-family="Inter" font-size="13" fill="#CBD5E1">
          E2E testing harness maintenance
        </text>
      </g>
      <g transform="translate(16, 74)">
        <circle cx="5" cy="5" r="3" fill="#A78BFA"/>
        <text x="16" y="9" font-family="Inter" font-size="13" fill="#CBD5E1">
          Ensure plugins integrate via manifest
        </text>
      </g>
      <g transform="translate(16, 104)">
        <circle cx="5" cy="5" r="3" fill="#A78BFA"/>
        <text x="16" y="9" font-family="Inter" font-size="13" fill="#CBD5E1">
          Maintain fallback panels for legacy
        </text>
      </g>
    </g>

    <!-- Right Column -->
    
    <!-- Topology Fit -->
    <g transform="translate(380, 0)">
      <g>
        <circle cx="8" cy="8" r="8" fill="#EC4899" opacity="0.2"/>
        <circle cx="8" cy="8" r="3" fill="#EC4899"/>
        <text x="24" y="13" font-family="Inter" font-size="16" font-weight="700" fill="#E2E8F0">Topology Fit</text>
      </g>
      
      <rect x="0" y="24" width="340" height="100" rx="8" fill="#1E293B" stroke="#334155" stroke-width="1"/>
      
      <!-- Highlighted badge -->
      <g transform="translate(16, 44)">
        <rect width="200" height="32" rx="16" fill="#EC4899" opacity="0.2" stroke="#EC4899" stroke-width="2"/>
        <text x="20" y="21" font-family="Inter" font-size="14" font-weight="700" fill="#F9A8D4">
          Enabling / Ops-like
        </text>
      </g>
      
      <text x="16" y="100" font-family="Inter" font-size="13" fill="#94A3B8">
        Helps plugin teams succeed in
      </text>
      <text x="16" y="116" font-family="Inter" font-size="13" fill="#94A3B8">
        E2E integration scenarios
      </text>
    </g>

    <!-- Key Characteristics -->
    <g transform="translate(380, 140)">
      <g>
        <circle cx="8" cy="8" r="8" fill="#06B6D4" opacity="0.2"/>
        <circle cx="8" cy="8" r="3" fill="#06B6D4"/>
        <text x="24" y="13" font-family="Inter" font-size="16" font-weight="700" fill="#E2E8F0">Key Characteristics</text>
      </g>
      
      <rect x="0" y="24" width="340" height="180" rx="8" fill="#1E293B" stroke="#334155" stroke-width="1"/>
      
      <!-- Feature list with icons -->
      <g transform="translate(16, 44)">
        <rect x="0" y="0" width="4" height="20" rx="2" fill="#10B981"/>
        <text x="12" y="14" font-family="Inter" font-size="13" fill="#CBD5E1">
          Thin integration layer ownership
        </text>
      </g>
      <g transform="translate(16, 74)">
        <rect x="0" y="0" width="4" height="20" rx="2" fill="#10B981"/>
        <text x="12" y="14" font-family="Inter" font-size="13" fill="#CBD5E1">
          Comprehensive E2E test suites
        </text>
      </g>
      <g transform="translate(16, 104)">
        <rect x="0" y="0" width="4" height="20" rx="2" fill="#10B981"/>
        <text x="12" y="14" font-family="Inter" font-size="13" fill="#CBD5E1">
          Cross-plugin scenario validation
        </text>
      </g>
      <g transform="translate(16, 134)">
        <rect x="0" y="0" width="4" height="20" rx="2" fill="#10B981"/>
        <text x="12" y="14" font-family="Inter" font-size="13" fill="#CBD5E1">
          Integration troubleshooting support
        </text>
      </g>
    </g>

    <!-- Collaboration Box -->
    <g transform="translate(380, 360)">
      <g>
        <circle cx="8" cy="8" r="8" fill="#F59E0B" opacity="0.2"/>
        <circle cx="8" cy="8" r="3" fill="#F59E0B"/>
        <text x="24" y="13" font-family="Inter" font-size="16" font-weight="700" fill="#E2E8F0">Collaboration</text>
      </g>
      
      <rect x="0" y="24" width="340" height="60" rx="8" fill="#1E293B" stroke="#334155" stroke-width="1"/>
      <text x="16" y="48" font-family="Inter" font-size="13" fill="#CBD5E1">
        <tspan x="16" dy="0">Support plugin teams with integration</tspan>
        <tspan x="16" dy="20">Coordinate with Host SDK on APIs</tspan>
      </text>
    </g>

  </g>

  <!-- Footer -->
  <g transform="translate(20, 560)">
    <text x="380" y="38" text-anchor="middle" font-family="Inter" font-size="12" fill="#64748B" transform="translate(-5, 26)">
      RenderX Team Topologies — Thin Host Enabling Pattern
    </text>
  </g>
</svg>
